<?xml version="1.0" standalone="no"?>
<!DOCTYPE svg PUBLIC "-//W3C//DTD SVG 20010904//EN"
 "http://www.w3.org/TR/2001/REC-SVG-20010904/DTD/svg10.dtd">
<svg version="1.0" xmlns="http://www.w3.org/2000/svg"
 width="1772.000000pt" height="3189.000000pt" viewBox="0 0 1772.000000 3189.000000"
 preserveAspectRatio="xMidYMid meet">

<g transform="translate(0.000000,3189.000000) scale(0.100000,-0.100000)"
fill="#000000" stroke="none">
<path d="M7892 31309 c-45 -23 -81 -64 -100 -114 -15 -39 -877 -2916 -892
-2977 l-12 -48 -1167 -2 -1166 -3 -70 -24 c-156 -52 -266 -123 -380 -243 -116
-122 -184 -246 -238 -436 l-22 -77 -3 -2020 c-2 -1111 0 -2948 4 -4082 l6
-2063 874 0 874 0 0 403 c0 222 4 407 9 413 5 5 21 56 36 113 202 779 755
1460 1431 1764 302 136 585 197 909 197 348 0 659 -73 974 -228 615 -302 1103
-890 1326 -1597 94 -299 85 -229 85 -670 l0 -395 876 0 877 0 -8 4043 c-7
4347 -4 4116 -57 4277 -93 287 -308 505 -593 601 l-70 24 -1157 3 c-1009 2
-1158 4 -1158 17 0 8 -203 691 -450 1517 -337 1122 -458 1513 -478 1543 -54
80 -170 108 -260 64z"/>
<path d="M5150 17001 c0 -180 4 -353 10 -382 32 -172 171 -321 345 -370 40
-11 153 -14 570 -14 480 0 524 1 573 18 154 54 260 159 317 313 16 43 19 94
23 407 l4 357 -921 0 -921 0 0 -329z m1011 0 c23 -18 24 -25 27 -179 3 -157 3
-160 -21 -188 -24 -27 -30 -29 -102 -29 -113 0 -115 4 -115 207 0 155 1 159
25 183 21 22 33 25 93 25 54 0 75 -4 93 -19z"/>
<path d="M8990 17003 c0 -355 7 -418 53 -510 53 -103 153 -190 273 -235 58
-23 64 -23 594 -23 522 0 536 1 591 22 146 55 249 158 301 301 20 53 22 80 26
415 l4 357 -921 0 -921 0 0 -327z m1015 -8 c24 -23 25 -28 25 -174 0 -161 -7
-192 -47 -210 -57 -26 -172 -5 -187 34 -3 9 -6 86 -6 171 0 151 1 156 25 179
21 22 33 25 95 25 62 0 74 -3 95 -25z"/>
<path d="M4609 13048 c-10 -13 -27 -33 -36 -45 -14 -17 -100 -46 -369 -127
-194 -59 -354 -106 -358 -106 -3 0 -6 11 -6 24 0 33 -44 83 -79 91 -22 5 -352
-83 -1226 -325 -659 -182 -1206 -335 -1217 -341 -41 -22 -50 -70 -43 -233 4
-83 10 -508 14 -944 l6 -794 28 -24 c20 -17 40 -24 72 -24 36 0 47 5 69 31
l26 31 0 368 c0 410 -5 379 67 394 l32 7 3 -358 c2 -263 6 -364 16 -380 9 -17
12 -202 12 -832 l0 -809 -124 -4 c-135 -3 -154 -10 -200 -72 -21 -27 -21 -39
-24 -615 l-2 -587 23 -34 c12 -19 37 -44 54 -56 29 -19 49 -21 310 -27 153 -4
766 -7 1362 -7 l1084 0 -8 -393 -7 -394 81 -6 c304 -24 482 -213 541 -577 6
-40 10 -278 10 -616 l0 -551 52 -12 c94 -21 185 -105 208 -192 7 -25 10 -131
8 -282 -3 -217 -5 -246 -23 -282 -30 -60 -95 -120 -156 -143 l-54 -20 -5
-1173 -5 -1174 -26 -83 -26 -82 51 -15 c28 -9 94 -20 146 -25 54 -5 736 -10
1593 -10 l1497 0 2 738 3 737 5 -735 5 -735 1560 0 1560 0 85 23 c310 82 525
299 607 612 15 59 17 178 23 1230 3 704 6 951 8 623 1 -299 4 -543 7 -543 3 0
152 120 330 266 236 194 322 270 315 279 -6 7 -11 335 -12 908 -2 719 -6 899
-16 909 -10 10 -82 14 -307 16 l-295 3 0 849 0 850 1153 1 c633 1 1251 4 1372
8 206 6 222 7 251 28 17 13 40 40 50 60 18 35 19 74 22 563 2 289 0 548 -3
577 -7 57 -34 104 -78 137 -24 18 -47 22 -150 26 l-122 5 -3 803 c-2 699 0
807 13 832 13 24 15 87 15 385 0 195 3 355 6 355 3 0 25 -5 50 -11 l44 -11 0
-348 c0 -191 3 -361 6 -379 10 -48 49 -81 96 -81 22 0 48 5 59 10 48 26 47 2
50 1017 4 1099 18 978 -115 1018 -45 13 -589 164 -1209 335 -806 223 -1136
310 -1155 305 -39 -9 -71 -43 -78 -82 -5 -26 -11 -34 -23 -30 -9 2 -177 53
-373 112 -355 107 -357 108 -380 144 l-23 36 -342 3 c-332 2 -343 2 -363 -18
-20 -20 -20 -26 -20 -3385 0 -1851 -3 -3365 -7 -3365 -5 0 -165 49 -356 109
-217 68 -357 117 -370 129 -15 14 -326 116 -899 296 l-877 276 -115 0 -115 0
-893 -280 c-491 -154 -913 -288 -938 -297 -25 -10 -191 -63 -370 -119 l-325
-102 -5 3363 c-4 2829 -7 3365 -19 3378 -12 15 -49 17 -353 17 l-340 0 -19
-22z"/>
<path d="M4090 5934 l1 -379 -43 -6 c-24 -3 -65 -17 -93 -30 -47 -21 -65 -23
-262 -27 l-213 -4 0 -349 c0 -343 0 -349 19 -339 13 6 183 10 484 10 435 0
465 -1 480 -18 9 -10 20 -33 23 -50 6 -30 9 -32 51 -32 l44 0 -4 583 c-3 566
-4 584 -26 661 -66 232 -187 345 -379 354 l-82 4 0 -378z"/>
</g>
</svg>
